# xmcd CD database file
# Copyright (C) 1993-2000  Ti Kan
#
# Track frame offsets:
#	900
#	22078
#	40723
#	59203
#	78440
#	122277
#	137638
#	157730
#	173920
#	195843
#	220950
#	238980
#	262393
#	286833
#	308123
#	328178
#
# Disc length: 4635 seconds
#
# Revision: 1
# Processed by: cddbd v1.5.2PL0 Copyright (c) Steve Scherf et al.
# Submitted via: xmcd 2.6 PL0
#
DISCID=e8120f10,f411f210
DTITLE=Eros Ramazzotti - Eros Ramazzotti
DYEAR=1900
DGENRE=
TTITLE0=Terra Promessa
TTITLE1=Una Storia Importante
TTITLE2=Adesso Tu
TTITLE3=Ma Che Bello Questo Amore
TTITLE4=Musica È
TTITLE5=Occhi di Speranza
TTITLE6=Più Bella Cosa
TTITLE7=Memorie
TTITLE8=Cose della Vita
TTITLE9=L'Aurora
TTITLE10=Ancora Un Minuto Di Sole
TTITLE11=Quasi Amore
TTITLE12=Se Bastasse Una Canzone
TTITLE13=On'altra Te
TTITLE14=Favola
TTITLE15=Quanto Amore Sei
EXTD=
EXTT0=
EXTT1=
EXTT2=
EXTT3=
EXTT4=
EXTT5=
EXTT6=
EXTT7=
EXTT8=
EXTT9=
EXTT10=
EXTT11=
EXTT12=
EXTT13=
EXTT14=
EXTT15=
PLAYORDER=
